<svg width="200" height="60" xmlns="http://www.w3.org/2000/svg">
  <rect x="0" y="0" width="200" height="60" fill="none" />
  
  <!-- Red ribbon symbol -->
  <path d="M35,12 C33,16 30,19 26,21 C22,23 18,24 15,24 C11,24 8,21 8,17 C8,12 12,8 20,5 C28,2 33,0 36,0 C40,0 42,3 42,7 C42,12 38,16 30,19 C22,22 17,24 14,24 C10,24 8,21 8,17" 
        fill="none" stroke="#e11d48" stroke-width="4" stroke-linecap="round" />
  
  <!-- Text -->
  <text x="60" y="25" font-family="Arial, sans-serif" font-size="18" font-weight="bold" fill="#16a34a">HIV</text>
  <text x="60" y="45" font-family="Arial, sans-serif" font-size="14" fill="#4b5563">Treatment</text>
</svg> 