<svg xmlns="http://www.w3.org/2000/svg" width="64" height="64" viewBox="0 0 64 64">
  <rect width="64" height="64" rx="12" fill="#16a34a" />
  <!-- Red ribbon symbol -->
  <path d="M32,15 C30,19 27,22 23,24 C19,26 15,27 12,27 C8,27 5,24 5,20 C5,15 9,11 17,8 C25,5 30,3 33,3 C37,3 39,6 39,10 C39,15 35,19 27,22 C19,25 14,27 11,27 C7,27 5,24 5,20" 
        fill="none" stroke="#e11d48" stroke-width="4" stroke-linecap="round" />
  <text x="16" y="45" font-family="Arial, sans-serif" font-size="16" font-weight="bold" fill="white">HIV</text>
</svg> 